<svg width="29" height="29" viewBox="0 0 29 29" fill="none" xmlns="http://www.w3.org/2000/svg">
<g id="clarity:arrow-line" clip-path="url(#clip0_175_2236)">
<path id="Vector" d="M11.493 9.23932L19.7118 9.26064L19.7331 17.4795C19.7447 17.5651 19.7378 17.6522 19.7128 17.7349C19.6878 17.8176 19.6453 17.894 19.5882 17.9589C19.5311 18.0237 19.4608 18.0756 19.3819 18.1109C19.303 18.1462 19.2175 18.1642 19.1311 18.1636C19.0447 18.1629 18.9594 18.1438 18.8811 18.1073C18.8027 18.0709 18.7331 18.018 18.677 17.9524C18.6208 17.8867 18.5794 17.8097 18.5556 17.7267C18.5318 17.6436 18.5261 17.5564 18.5389 17.4709L18.5133 11.3121L10.3542 19.4713C10.2411 19.5844 10.0877 19.6479 9.9277 19.6479C9.76773 19.6479 9.61431 19.5844 9.50119 19.4713C9.38807 19.3581 9.32453 19.2047 9.32453 19.0448C9.32453 18.8848 9.38807 18.7314 9.50119 18.6182L17.6603 10.4591L11.5015 10.4335C11.3415 10.433 11.1882 10.3688 11.0754 10.2553C10.9626 10.1417 10.8996 9.98796 10.9001 9.8279C10.9007 9.66784 10.9648 9.51456 11.0784 9.40178C11.192 9.289 11.3457 9.22595 11.5058 9.22652L11.493 9.23932Z" fill="#9B9B9B"/>
</g>
<defs>
<clipPath id="clip0_175_2236">
<rect width="27.7347" height="27.7347" fill="white" transform="translate(0.683594 0.775391)"/>
</clipPath>
</defs>
</svg>
