<svg width="40" height="40" viewBox="0 0 40 40" fill="none" xmlns="http://www.w3.org/2000/svg">
<path d="M27.5 12H26.5V11C26.5 10.4 26.1 10 25.5 10C24.9 10 24.5 10.4 24.5 11V12H16.5V11C16.5 10.4 16.1 10 15.5 10C14.9 10 14.5 10.4 14.5 11V12H13.5C11.8 12 10.5 13.3 10.5 15V16H30.5V15C30.5 13.3 29.2 12 27.5 12ZM10.5 27C10.5 28.7 11.8 30 13.5 30H27.5C29.2 30 30.5 28.7 30.5 27V18H10.5V27ZM25.5 20C26.1 20 26.5 20.4 26.5 21C26.5 21.6 26.1 22 25.5 22C24.9 22 24.5 21.6 24.5 21C24.5 20.4 24.9 20 25.5 20ZM25.5 24C26.1 24 26.5 24.4 26.5 25C26.5 25.6 26.1 26 25.5 26C24.9 26 24.5 25.6 24.5 25C24.5 24.4 24.9 24 25.5 24ZM20.5 20C21.1 20 21.5 20.4 21.5 21C21.5 21.6 21.1 22 20.5 22C19.9 22 19.5 21.6 19.5 21C19.5 20.4 19.9 20 20.5 20ZM20.5 24C21.1 24 21.5 24.4 21.5 25C21.5 25.6 21.1 26 20.5 26C19.9 26 19.5 25.6 19.5 25C19.5 24.4 19.9 24 20.5 24ZM15.5 20C16.1 20 16.5 20.4 16.5 21C16.5 21.6 16.1 22 15.5 22C14.9 22 14.5 21.6 14.5 21C14.5 20.4 14.9 20 15.5 20ZM15.5 24C16.1 24 16.5 24.4 16.5 25C16.5 25.6 16.1 26 15.5 26C14.9 26 14.5 25.6 14.5 25C14.5 24.4 14.9 24 15.5 24Z" fill="#008582"/>
</svg>
