<svg width="48" height="49" viewBox="0 0 48 49" fill="none" xmlns="http://www.w3.org/2000/svg">
<rect y="0.5" width="48" height="48" rx="12" fill="#9FE2BF"/>
<path d="M19 19V18C19 17.45 19.196 16.9793 19.588 16.588C19.98 16.1967 20.4507 16.0007 21 16H27C27.55 16 28.021 16.196 28.413 16.588C28.805 16.98 29.0007 17.4507 29 18V19H29.7C30.1 19 30.4627 19.1127 30.788 19.338C31.1133 19.5633 31.3507 19.8507 31.5 20.2L33.85 25.6C33.9 25.7333 33.9377 25.8667 33.963 26C33.9883 26.1333 34.0007 26.2667 34 26.4V31C34 31.55 33.8043 32.021 33.413 32.413C33.0217 32.805 32.5507 33.0007 32 33H16C15.45 33 14.9793 32.8043 14.588 32.413C14.1967 32.0217 14.0007 31.5507 14 31V26.4C14 26.2667 14.0127 26.1333 14.038 26C14.0633 25.8667 14.1007 25.7333 14.15 25.6L16.5 20.2C16.65 19.85 16.8877 19.5623 17.213 19.337C17.5383 19.1117 17.9007 18.9993 18.3 19H19ZM21 19H27V18H21V19ZM19 25V24H21V25H27V24H29V25H31.4L29.7 21H18.3L16.6 25H19ZM19 27H16V31H32V27H29V28H27V27H21V28H19V27Z" fill="#00856B"/>
</svg>
