<svg width="26" height="26" viewBox="0 0 26 26" fill="none" xmlns="http://www.w3.org/2000/svg">
<path d="M19.1283 12.7304C19.4765 12.9683 19.787 13.2382 20.0598 13.54C20.3325 13.8417 20.5676 14.1725 20.7649 14.5324C20.9622 14.8922 21.1073 15.2723 21.2002 15.6728C21.293 16.0732 21.3453 16.4824 21.3569 16.9002C21.3569 17.5908 21.2263 18.2408 20.9651 18.8502C20.704 19.4596 20.3441 19.9906 19.8857 20.4433C19.4272 20.896 18.8961 21.2529 18.2926 21.5141C17.689 21.7752 17.039 21.9087 16.3426 21.9145C15.8145 21.9145 15.3037 21.8362 14.8104 21.6795C14.3171 21.5228 13.8645 21.2964 13.4524 21.0004C13.0403 20.7045 12.6747 20.3504 12.3555 19.9384C12.0363 19.5263 11.7897 19.0708 11.6156 18.5717H4.64258V5.20022H6.87115V4.08594H7.98544V5.20022H15.7854V4.08594H16.8997V5.20022H19.1283V12.7304ZM5.75686 6.31451V8.54308H18.014V6.31451H16.8997V7.42879H15.7854V6.31451H7.98544V7.42879H6.87115V6.31451H5.75686ZM11.3544 17.4574C11.337 17.2775 11.3283 17.0917 11.3283 16.9002C11.3283 16.4011 11.3979 15.9165 11.5372 15.4464C11.6765 14.9763 11.8883 14.5324 12.1727 14.1145H11.3283V13.0002H12.4426V13.7489C12.6805 13.4529 12.9446 13.1917 13.2348 12.9654C13.5249 12.7391 13.8383 12.5446 14.1749 12.3821C14.5116 12.2196 14.8627 12.0978 15.2283 12.0165C15.5939 11.9353 15.9653 11.8917 16.3426 11.8859C16.9229 11.8859 17.4801 11.9817 18.014 12.1732V9.65737H5.75686V17.4574H11.3544ZM16.3426 20.8002C16.8823 20.8002 17.3872 20.6987 17.8573 20.4955C18.3274 20.2924 18.7395 20.0138 19.0935 19.6598C19.4475 19.3058 19.7261 18.8938 19.9292 18.4237C20.1323 17.9536 20.2368 17.4458 20.2426 16.9002C20.2426 16.3605 20.141 15.8556 19.9379 15.3855C19.7348 14.9154 19.4562 14.5033 19.1022 14.1493C18.7482 13.7953 18.3361 13.5167 17.866 13.3136C17.3959 13.1105 16.8881 13.006 16.3426 13.0002C15.8028 13.0002 15.2979 13.1018 14.8278 13.3049C14.3578 13.508 13.9457 13.7866 13.5917 14.1406C13.2377 14.4946 12.9591 14.9067 12.756 15.3768C12.5528 15.8469 12.4484 16.3547 12.4426 16.9002C12.4426 17.44 12.5441 17.9449 12.7473 18.415C12.9504 18.885 13.229 19.2971 13.583 19.6511C13.937 20.0051 14.3491 20.2837 14.8191 20.4868C15.2892 20.69 15.797 20.7944 16.3426 20.8002ZM16.8997 16.3431H18.5711V17.4574H15.7854V14.1145H16.8997V16.3431ZM6.87115 13.0002H7.98544V14.1145H6.87115V13.0002ZM9.09972 13.0002H10.214V14.1145H9.09972V13.0002ZM9.09972 10.7717H10.214V11.8859H9.09972V10.7717ZM6.87115 15.2288H7.98544V16.3431H6.87115V15.2288ZM9.09972 15.2288H10.214V16.3431H9.09972V15.2288ZM12.4426 11.8859H11.3283V10.7717H12.4426V11.8859ZM14.6711 11.8859H13.5569V10.7717H14.6711V11.8859ZM16.8997 11.8859H15.7854V10.7717H16.8997V11.8859Z" fill="#00856B"/>
</svg>
