<svg width="41" height="41" viewBox="0 0 41 41" fill="none" xmlns="http://www.w3.org/2000/svg">
<g id="material-symbols-light:electrical-services-sharp">
<rect x="0.0307617" y="0.489746" width="40" height="40" rx="20" fill="#CFDEFF"/>
<path id="Vector" d="M25.1833 22.6667V22.9167H25.4333H28.6333H28.8833V22.6667V21.6V21.35H28.6333H25.4333H25.1833V21.6V22.6667ZM25.1833 26.9333V27.1833H25.4333H28.6333H28.8833V26.9333V25.8667V25.6167H28.6333H25.4333H25.1833V25.8667V26.9333ZM19.85 28V28.25H20.1H24.3667H24.6167V28V20.5333V20.2833H24.3667H20.1H19.85V20.5333V22.4167H17.9667H17.7167V22.6667V25.8667V26.1167H17.9667H19.85V28ZM10.25 24.8V25.05H10.5H16.9H17.15V24.8V23.7333V23.4833H16.9H11.8167V18.65H19.0333H19.2833V18.4V12V11.75H19.0333H11.5667H11.3167V12V13.0667V13.3167H11.5667H17.7167V17.0833H10.5H10.25V17.3333V24.8Z" fill="#407BFF" stroke="#407BFF" stroke-width="0.5"/>
</g>
</svg>
