<svg width="35" height="35" viewBox="0 0 35 35" fill="none" xmlns="http://www.w3.org/2000/svg">
<rect x="0.0209961" width="34.8597" height="34.8597" rx="17.4298" fill="#D3FFDF"/>
<path d="M22.7405 8.06924H22.7403L21.3459 8.06924L21.3457 8.06924C21.0846 8.06953 20.83 8.15069 20.6169 8.30154C20.447 8.42184 20.3101 8.58176 20.2175 8.76643L18.5571 8.76643L18.5569 8.76643C16.1886 8.76903 13.9181 9.71097 12.2435 11.3856C10.5689 13.0602 9.62694 15.3307 9.62434 17.699V17.6992V19.3596C9.43967 19.4522 9.27975 19.5891 9.15945 19.759C9.0086 19.9721 8.92745 20.2267 8.92715 20.4877V20.488L8.92715 21.8824L8.92715 21.8826C8.92745 22.1437 9.0086 22.3983 9.15945 22.6114C9.27975 22.7813 9.43967 22.9182 9.62434 23.0108V25.3683C9.62434 25.5186 9.68402 25.6627 9.79026 25.7689C9.89649 25.8751 10.0406 25.9348 10.1908 25.9348C10.341 25.9348 10.4851 25.8751 10.5914 25.7689C10.6976 25.6627 10.7573 25.5186 10.7573 25.3683V23.146H15.2019V25.3683C15.2019 25.5186 15.2616 25.6627 15.3678 25.7689C15.474 25.8751 15.6181 25.9348 15.7684 25.9348C15.9186 25.9348 16.0627 25.8751 16.1689 25.7689C16.2751 25.6627 16.3348 25.5186 16.3348 25.3683V23.0108C16.5195 22.9182 16.6794 22.7813 16.7997 22.6114C16.9506 22.3983 17.0317 22.1437 17.032 21.8826V21.8824V20.488L17.032 20.4877C17.0317 20.2267 16.9506 19.9721 16.7997 19.759C16.6794 19.5891 16.5195 19.4522 16.3348 19.3596V17.6992C16.3348 17.1098 16.569 16.5446 16.9857 16.1278C17.4025 15.7111 17.9677 15.4769 18.5571 15.4769H20.2175C20.3101 15.6616 20.447 15.8215 20.6169 15.9418C20.83 16.0927 21.0846 16.1738 21.3457 16.1741H21.3459H22.7403L22.7405 16.1741C23.0016 16.1738 23.2562 16.0927 23.4693 15.9418C23.6392 15.8215 23.7761 15.6616 23.8687 15.4769H26.2263C26.3765 15.4769 26.5206 15.4172 26.6268 15.311C26.733 15.2048 26.7927 15.0607 26.7927 14.9104C26.7927 14.7602 26.733 14.6161 26.6268 14.5099C26.5206 14.4037 26.3765 14.344 26.2263 14.344H24.004V9.89937H26.2263C26.3765 9.89937 26.5206 9.83969 26.6268 9.73345C26.733 9.62722 26.7927 9.48313 26.7927 9.3329C26.7927 9.18266 26.733 9.03858 26.6268 8.93235C26.5206 8.82611 26.3765 8.76643 26.2263 8.76643H23.8687C23.7761 8.58176 23.6392 8.42184 23.4693 8.30154C23.2562 8.15069 23.0016 8.06953 22.7405 8.06924ZM15.8991 21.8824C15.8991 21.9171 15.8853 21.9503 15.8608 21.9748C15.8363 21.9993 15.803 22.0131 15.7684 22.0131H10.1908C10.1561 22.0131 10.1229 21.9993 10.0984 21.9748C10.0739 21.9503 10.0601 21.9171 10.0601 21.8824V20.488C10.0601 20.4533 10.0739 20.4201 10.0984 20.3956C10.1229 20.371 10.1561 20.3573 10.1908 20.3573H15.7684C15.803 20.3573 15.8363 20.371 15.8608 20.3956C15.8853 20.4201 15.8991 20.4533 15.8991 20.488V21.8824ZM15.2019 17.6992V19.2243H10.7573L10.7573 17.6995C10.7573 17.6994 10.7573 17.6994 10.7573 17.6993C10.7596 15.6314 11.5821 13.6487 13.0444 12.1864C14.5066 10.7242 16.4893 9.90164 18.5573 9.89937C18.5573 9.89937 18.5573 9.89937 18.5574 9.89937L20.0822 9.89937V14.344H18.5571C17.6673 14.344 16.8138 14.6975 16.1846 15.3267C15.5554 15.9559 15.2019 16.8094 15.2019 17.6992ZM22.7403 15.0412H21.3459C21.3112 15.0412 21.278 15.0274 21.2535 15.0029C21.229 14.9784 21.2152 14.9451 21.2152 14.9104V9.3329C21.2152 9.29823 21.229 9.26498 21.2535 9.24046C21.278 9.21595 21.3112 9.20218 21.3459 9.20218H22.7403C22.775 9.20218 22.8082 9.21595 22.8327 9.24046C22.8572 9.26498 22.871 9.29823 22.871 9.3329V14.9104C22.871 14.9451 22.8572 14.9784 22.8327 15.0029C22.8082 15.0274 22.775 15.0412 22.7403 15.0412Z" fill="#00856B" stroke="#00856B" stroke-width="0.435746"/>
</svg>
