<svg width="41" height="41" viewBox="0 0 41 41" fill="none" xmlns="http://www.w3.org/2000/svg">
<g id="material-symbols-light:garden-cart-outline">
<rect x="0.0307617" y="0.489746" width="40" height="40" rx="20" fill="#FFF4CC"/>
<path id="Vector" d="M14.1591 26.409L14.1591 26.4094C14.16 26.9115 14.3235 27.349 14.6528 27.7064C14.9876 28.0698 15.4205 28.25 15.9306 28.25C16.2752 28.25 16.5975 28.1456 16.8953 27.9457C17.1813 27.7539 17.4185 27.5158 17.605 27.2323C17.6053 27.2319 17.6055 27.2316 17.6057 27.2313L20.2843 23.2348L24.8487 23.6396C24.7435 23.7998 24.6547 23.9707 24.5827 24.1522L24.5825 24.1527C24.4498 24.4888 24.3849 24.8513 24.3849 25.2378C24.3849 26.0662 24.6772 26.7807 25.2571 27.367C25.8385 27.9548 26.5567 28.25 27.3961 28.25C28.2235 28.25 28.9341 27.9538 29.5132 27.3668L29.5134 27.3665C30.0902 26.7801 30.3807 26.0658 30.3807 25.2378C30.3807 24.458 30.1185 23.7749 29.5977 23.2004L29.5977 23.2004C29.1585 22.716 28.6256 22.4096 28.0059 22.2845L30.5057 17.3732C30.7073 16.9986 30.6956 16.6123 30.4714 16.2504C30.2476 15.8892 29.9074 15.7022 29.481 15.7022H15.1706L13.5406 11.9015L13.4757 11.75H13.3109H10.5H10.25V12V13.1049V13.3549H10.5H12.3984L14.1591 17.4369L14.1591 26.409ZM17.1209 20.277L17.121 20.2769L17.1195 20.2735L15.8509 17.3071H28.7245L26.2502 22.1788L18.9338 21.4975C18.9336 21.4975 18.9334 21.4974 18.9332 21.4974C18.4596 21.4507 18.0782 21.3132 17.7778 21.0953C17.4696 20.8718 17.2531 20.5994 17.1209 20.277ZM15.7924 21.1374L15.7922 21.1374L15.7967 21.147C16.0604 21.6983 16.4502 22.141 16.9627 22.4711C17.3854 22.7444 17.9001 22.9334 18.4998 23.0449L16.2812 26.3247C16.185 26.4417 16.1042 26.5194 16.0391 26.5663C15.9708 26.6155 15.9387 26.6175 15.9361 26.6175C15.8563 26.6175 15.8274 26.5956 15.811 26.5772L15.8102 26.5764C15.7876 26.5513 15.764 26.5066 15.764 26.4145V21.071L15.7924 21.1374ZM27.3707 26.6661H27.3703C26.9748 26.6667 26.6474 26.5316 26.3731 26.2567C26.0985 25.9815 25.9633 25.6537 25.9633 25.2588V25.2584C25.9627 24.8424 26.0997 24.513 26.3702 24.2504C26.645 23.9838 26.9735 23.8514 27.3707 23.8514C27.7891 23.8514 28.1195 23.9857 28.3816 24.2478C28.6438 24.5099 28.778 24.8403 28.778 25.2588C28.778 25.6567 28.6455 25.9851 28.3792 26.259C28.1166 26.529 27.7869 26.6661 27.3707 26.6661Z" fill="#F5891F" stroke="#F5891F" stroke-width="0.5"/>
</g>
</svg>
