<svg width="23" height="22" viewBox="0 0 23 22" fill="none" xmlns="http://www.w3.org/2000/svg">
<path fill-rule="evenodd" clip-rule="evenodd" d="M9.65839 13.9495C10.2248 14.3335 10.9151 14.5656 11.6496 14.5656C13.5965 14.5656 15.1806 12.9673 15.1806 11.0029C15.1806 10.2617 14.9505 9.56525 14.57 8.99378L13.6054 9.96707C13.7647 10.2707 13.8532 10.6278 13.8532 11.0029C13.8532 12.2262 12.862 13.2262 11.6496 13.2262C11.2779 13.2262 10.9239 13.137 10.623 12.9762L9.65839 13.9495ZM17.482 6.05637C18.7652 7.23503 19.8537 8.82444 20.6679 10.7353C20.7387 10.905 20.7387 11.1014 20.6679 11.2621C18.7741 15.7089 15.4023 18.3698 11.65 18.3698H11.6412C9.9332 18.3698 8.296 17.8073 6.8535 16.7804L5.13665 18.5127C5.0039 18.6466 4.83576 18.7091 4.66761 18.7091C4.49947 18.7091 4.32248 18.6466 4.19858 18.5127C3.97734 18.2895 3.94194 17.9323 4.11893 17.6733L4.14548 17.6376L17.2342 4.43124C17.2519 4.41338 17.2696 4.39552 17.2785 4.37767L17.2785 4.37766C17.2962 4.3598 17.3139 4.34195 17.3227 4.32409L18.1546 3.48474C18.4201 3.22579 18.836 3.22579 19.0927 3.48474C19.3581 3.74369 19.3581 4.17229 19.0927 4.43124L17.482 6.05637ZM8.11262 11.0069C8.11262 11.239 8.13917 11.4712 8.17457 11.6855L4.90017 14.9893C4.0152 13.9535 3.24527 12.7034 2.63464 11.2658C2.56384 11.1051 2.56384 10.9086 2.63464 10.739C4.52848 6.2922 7.90022 3.64021 11.6437 3.64021H11.6525C12.918 3.64021 14.1481 3.9438 15.2809 4.51528L12.3251 7.49765C12.1127 7.46193 11.8826 7.43515 11.6525 7.43515C9.69672 7.43515 8.11262 9.03348 8.11262 11.0069Z" fill="#D0D0D0"/>
</svg>
