<svg width="40" height="40" viewBox="0 0 40 40" fill="none" xmlns="http://www.w3.org/2000/svg">
<path d="M19.2388 10.4467C19.595 10.1577 20.0398 10 20.4986 10C20.9573 10 21.4022 10.1577 21.7584 10.4467L29.3853 16.6259C29.7321 16.9067 30.0119 17.2614 30.2043 17.6641C30.3966 18.0668 30.4967 18.5073 30.4972 18.9536V28.0003C30.4972 28.5306 30.2865 29.0393 29.9115 29.4143C29.5365 29.7893 29.0278 30 28.4975 30H25.4979C24.9675 30 24.4589 29.7893 24.0839 29.4143C23.7089 29.0393 23.4982 28.5306 23.4982 28.0003V23.001C23.4982 22.7358 23.3928 22.4815 23.2053 22.294C23.0178 22.1065 22.7635 22.0011 22.4983 22.0011H18.4989C18.2337 22.0011 17.9794 22.1065 17.7919 22.294C17.6044 22.4815 17.499 22.7358 17.499 23.001V28.0003C17.499 28.5306 17.2883 29.0393 16.9133 29.4143C16.5383 29.7893 16.0297 30 15.4993 30H12.4997C11.9694 30 11.4607 29.7893 11.0857 29.4143C10.7107 29.0393 10.5 28.5306 10.5 28.0003V18.9556C10.4999 18.5086 10.5997 18.0673 10.7921 17.6639C10.9844 17.2605 11.2645 16.9051 11.6118 16.6239L19.2388 10.4467Z" fill="#008582"/>
</svg>
