<svg width="38" height="38" viewBox="0 0 38 38" fill="none" xmlns="http://www.w3.org/2000/svg">
<circle cx="19.3199" cy="18.6647" r="18.6647" fill="white" fill-opacity="0.23"/>
<path d="M19.3208 11.2621C21.7322 11.2621 22.0178 11.2711 22.9703 11.3146C23.5431 11.3216 24.1104 11.4268 24.6476 11.6255C25.0372 11.7758 25.3909 12.0059 25.6862 12.3011C25.9814 12.5964 26.2116 12.9502 26.3618 13.3397C26.5606 13.8769 26.6657 14.4442 26.6727 15.017C26.7158 15.9696 26.7252 16.2551 26.7252 18.6665C26.7252 21.0778 26.7162 21.3634 26.6727 22.316C26.6657 22.8887 26.5606 23.456 26.3618 23.9932C26.2116 24.3828 25.9814 24.7366 25.6862 25.0318C25.3909 25.3271 25.0372 25.5572 24.6476 25.7075C24.1104 25.9062 23.5431 26.0114 22.9703 26.0184C22.0182 26.0614 21.7326 26.0709 19.3208 26.0709C16.9091 26.0709 16.6235 26.0618 15.6713 26.0184C15.0986 26.0114 14.5313 25.9062 13.9941 25.7075C13.6045 25.5572 13.2507 25.3271 12.9555 25.0318C12.6603 24.7366 12.4301 24.3828 12.2799 23.9932C12.0811 23.456 11.976 22.8887 11.9689 22.316C11.9259 21.3634 11.9165 21.0778 11.9165 18.6665C11.9165 16.2551 11.9255 15.9696 11.9689 15.017C11.976 14.4442 12.0811 13.8769 12.2799 13.3397C12.4301 12.9502 12.6603 12.5964 12.9555 12.3011C13.2507 12.0059 13.6045 11.7758 13.9941 11.6255C14.5313 11.4268 15.0986 11.3216 15.6713 11.3146C16.6239 11.2716 16.9095 11.2621 19.3208 11.2621V11.2621ZM19.3208 9.63477C16.8695 9.63477 16.5607 9.64509 15.5974 9.68895C14.8478 9.70386 14.1062 9.84579 13.4041 10.1087C12.8018 10.3356 12.2562 10.6912 11.8055 11.1507C11.3456 11.6016 10.9897 12.1474 10.7626 12.7501C10.4997 13.4522 10.3578 14.1939 10.3429 14.9434C10.2999 15.9059 10.2896 16.2147 10.2896 18.6661C10.2896 21.1174 10.2999 21.4262 10.3437 22.3895C10.3586 23.1391 10.5006 23.8807 10.7635 24.5828C10.9903 25.1855 11.3459 25.7313 11.8055 26.1822C12.2565 26.6418 12.8023 26.9975 13.4049 27.2243C14.107 27.4872 14.8487 27.6291 15.5982 27.644C16.5616 27.687 16.8691 27.6982 19.3217 27.6982C21.7743 27.6982 22.0818 27.6879 23.0452 27.644C23.7948 27.6291 24.5364 27.4872 25.2385 27.2243C25.8382 26.9918 26.3829 26.6367 26.8376 26.1817C27.2923 25.7268 27.647 25.1819 27.8791 24.582C28.142 23.8799 28.2839 23.1382 28.2988 22.3887C28.3418 21.4262 28.3521 21.1174 28.3521 18.6661C28.3521 16.2147 28.3418 15.9059 28.298 14.9426C28.283 14.193 28.1411 13.4514 27.8782 12.7493C27.6514 12.1467 27.2958 11.6008 26.8362 11.1499C26.3852 10.6903 25.8394 10.3347 25.2368 10.1078C24.5347 9.84493 23.793 9.703 23.0435 9.68809C22.081 9.64509 21.7722 9.63477 19.3208 9.63477Z" fill="#92E3A9"/>
<path d="M19.3228 14.0303C18.4056 14.0303 17.5089 14.3023 16.7462 14.8119C15.9836 15.3215 15.3891 16.0458 15.0381 16.8933C14.6871 17.7407 14.5952 18.6732 14.7742 19.5728C14.9531 20.4725 15.3948 21.2989 16.0434 21.9475C16.692 22.5961 17.5184 23.0378 18.4181 23.2167C19.3177 23.3957 20.2502 23.3038 21.0976 22.9528C21.9451 22.6018 22.6694 22.0074 23.179 21.2447C23.6886 20.482 23.9606 19.5853 23.9606 18.6681C23.9606 17.438 23.472 16.2584 22.6023 15.3886C21.7325 14.5189 20.5529 14.0303 19.3228 14.0303ZM19.3228 21.6785C18.7274 21.6785 18.1454 21.5019 17.6503 21.1711C17.1553 20.8403 16.7694 20.3702 16.5416 19.8201C16.3137 19.27 16.2541 18.6647 16.3703 18.0808C16.4864 17.4968 16.7731 16.9604 17.1941 16.5394C17.6152 16.1183 18.1516 15.8316 18.7355 15.7155C19.3195 15.5993 19.9248 15.6589 20.4749 15.8868C21.025 16.1146 21.4951 16.5005 21.8259 16.9956C22.1567 17.4906 22.3333 18.0727 22.3333 18.6681C22.3333 19.4665 22.0161 20.2322 21.4515 20.7968C20.887 21.3613 20.1213 21.6785 19.3228 21.6785V21.6785Z" fill="#92E3A9"/>
<path d="M24.1428 14.9292C24.7414 14.9292 25.2266 14.444 25.2266 13.8455C25.2266 13.2469 24.7414 12.7617 24.1428 12.7617C23.5443 12.7617 23.0591 13.2469 23.0591 13.8455C23.0591 14.444 23.5443 14.9292 24.1428 14.9292Z" fill="#92E3A9"/>
</svg>
