<svg width="41" height="41" viewBox="0 0 41 41" fill="none" xmlns="http://www.w3.org/2000/svg">
<g id="material-symbols-light:laundry-outline">
<rect x="0.0307617" y="0.489746" width="40" height="40" rx="20" fill="#FFE2DE"/>
<path id="Vector" d="M10.9558 18.517L10.8332 18.3053L8.28366 13.9029L8.15787 13.6857L8.37558 13.5608L14.9589 9.78316L15.0167 9.75H15.0834H15.8911H16.0712L16.1283 9.92083C16.4686 10.9401 17.0102 11.7596 17.7504 12.3879C18.4772 13.0039 19.3888 13.3181 20.503 13.3181C21.6172 13.3181 22.5292 13.0039 23.2569 12.3879C23.9963 11.7597 24.5375 10.9402 24.8778 9.92083L24.9348 9.75H25.1149H25.9227H25.9901L26.0484 9.78388L32.5989 13.593L32.8141 13.7182L32.6899 13.9339L30.1745 18.3047L30.0521 18.5173L29.8372 18.399L27.0638 16.8725V25.3225V25.4359L26.9784 25.5106L26.1334 26.2498C26.133 26.2501 26.1327 26.2504 26.1324 26.2507C26.0667 26.3092 25.989 26.3601 25.9038 26.4053C25.9036 26.4053 25.9034 26.4054 25.9032 26.4055L25.8016 26.2133V26.2817H25.5516L25.4776 26.0429C25.5031 26.035 25.5278 26.0265 25.5516 26.0173V14.5794L25.4308 14.5127L25.5516 14.2938H25.8016V14.4318L29.4958 16.471M10.9558 18.517L27.0638 16.5872L29.9578 18.18L32.4732 13.8092L25.9227 10H25.1149C24.7615 11.0585 24.1961 11.918 23.4186 12.5786C22.6394 13.2383 21.6676 13.5681 20.503 13.5681C19.3385 13.5681 18.3671 13.2383 17.5887 12.5786C16.8104 11.918 16.2445 11.0585 15.8911 10H15.0834L8.71684 13.6532L8.71634 13.6523L8.5 13.7776L8.62442 13.9944L8.62529 13.994L11.0495 18.18L13.9423 16.5861V16.8715M10.9558 18.517L11.1702 18.3989L13.9423 16.8715M10.9558 18.517L13.9423 16.8715M29.4958 16.471L30.758 14.2623M29.4958 16.471L29.6167 16.2522L29.401 16.1331M29.4958 16.471L29.2788 16.347L29.401 16.1331M30.758 14.2623L26.1469 11.58C26.1098 11.6552 26.0715 11.7294 26.032 11.8024M30.758 14.2623L30.5409 14.1382L30.4178 14.3536M30.758 14.2623L30.6323 14.4784L30.4178 14.3536M26.032 11.8024L25.8158 11.6766C25.3163 12.6036 24.617 13.3497 23.7177 13.9152C22.7476 14.5252 21.676 14.8302 20.503 14.8302C19.3301 14.8302 18.2585 14.5252 17.2883 13.9152C16.3891 13.3497 15.6897 12.6035 15.1902 11.6766L14.9737 11.8018M26.032 11.8024C25.5124 12.7639 24.7844 13.5398 23.8508 14.1268C22.8398 14.7625 21.7219 15.0802 20.503 15.0802C19.2842 15.0802 18.1663 14.7625 17.1553 14.1268C16.2215 13.5397 15.4934 12.7636 14.9737 11.8018M26.032 11.8024L30.4178 14.3536M14.9737 11.8018C14.9342 11.7287 14.8959 11.6546 14.8588 11.5794L10.433 14.1372L10.5593 14.3529M14.9737 11.8018L10.5593 14.3529M10.5593 14.3529L10.3429 14.478L11.5102 16.471L15.2044 14.4318V14.2938H15.4544L15.5753 14.5127L15.4544 14.5794V21.3114C15.239 21.3366 15.0261 21.3602 14.8158 21.3821C14.6904 21.3951 14.5659 21.417 14.4423 21.4476V21.5222H14.1923L14.11 21.2861C14.1374 21.2765 14.1648 21.2674 14.1923 21.2587V16.7338L13.9423 16.8715M10.5593 14.3529L11.6028 16.1344L15.3336 14.075L15.7044 13.8703V14.2938V21.3114V21.5338L15.4835 21.5597C15.2671 21.585 15.0531 21.6087 14.8417 21.6307C14.651 21.6505 14.4621 21.6929 14.2745 21.7582L13.9423 21.874V21.5222V16.8715M13.9423 16.8715L29.401 16.1331M30.4178 14.3536L29.401 16.1331M26.8138 16.7349V25.3225L25.9669 26.0634C25.9231 26.1025 25.868 26.1401 25.8016 26.1763V26.213L26.8138 16.7349ZM11.1095 27.8453L11.2716 28.0346L11.4614 27.8731L13.7207 25.9509L13.7207 25.9509L13.7225 25.9493C14.0126 25.6977 14.3506 25.5104 14.7394 25.388C15.136 25.2633 15.5319 25.2014 15.9277 25.2014C16.3289 25.2014 16.7202 25.2633 17.1025 25.3873C17.4777 25.5093 17.8099 25.6965 18.1014 25.9493L18.1029 25.9506L21.7632 29.0744L21.7632 29.0744C22.224 29.4676 22.7479 29.7622 23.3329 29.9581L23.333 29.9582C23.9143 30.1525 24.5069 30.25 25.1099 30.25C25.7129 30.25 26.3009 30.1525 26.8729 29.9577L26.873 29.9577C27.448 29.7616 27.9659 29.4669 28.4252 29.0743L30.684 27.1511L30.8718 26.9912L30.7145 26.8013L29.8992 25.8168L29.7363 25.6201L29.5431 25.7872L27.2838 27.741L27.2819 27.7427C26.991 27.9996 26.6595 28.1873 26.2852 28.3064C25.9032 28.4274 25.5118 28.4879 25.1099 28.4879H25.1094C24.7137 28.4886 24.318 28.4272 23.9215 28.3025C23.5327 28.1802 23.1947 27.9928 22.9046 27.7412L22.9031 27.7399L19.2432 24.6164C19.2431 24.6163 19.243 24.6162 19.2429 24.6162C18.7855 24.2244 18.269 23.9248 17.695 23.7179C17.1219 23.5113 16.5324 23.4077 15.9277 23.4077C15.3231 23.4077 14.729 23.5112 14.1467 23.7174C13.5626 23.9242 13.0401 24.2237 12.5811 24.6161C12.581 24.6161 12.581 24.6162 12.5809 24.6162L10.3209 26.5381L10.1298 26.7005L10.2929 26.8911L11.1095 27.8453Z" fill="#FF725E" stroke="#FF725E" stroke-width="0.5"/>
</g>
</svg>
