<svg width="19" height="20" viewBox="0 0 19 20" fill="none" xmlns="http://www.w3.org/2000/svg">
<path d="M13.9781 4.69862C11.505 2.26583 7.49516 2.26583 5.022 4.69862C4.43481 5.27229 3.96822 5.95755 3.64966 6.71413C3.3311 7.47071 3.16699 8.28333 3.16699 9.10424C3.16699 9.92515 3.3311 10.7378 3.64966 11.4944C3.96822 12.2509 4.43481 12.9362 5.022 13.5099L9.49966 17.9155L13.9781 13.5099C14.5653 12.9362 15.0319 12.2509 15.3505 11.4944C15.669 10.7378 15.8331 9.92515 15.8331 9.10424C15.8331 8.28333 15.669 7.47071 15.3505 6.71413C15.0319 5.95755 14.5653 5.27229 13.9781 4.69862ZM9.49966 11.1863C8.97083 11.1863 8.47446 10.9805 8.1 10.6068C7.7293 10.2353 7.52111 9.73196 7.52111 9.20716C7.52111 8.68235 7.7293 8.17898 8.1 7.80749C8.47366 7.43383 8.97083 7.22799 9.49966 7.22799C10.0285 7.22799 10.5257 7.43383 10.8993 7.80749C11.27 8.17898 11.4782 8.68235 11.4782 9.20716C11.4782 9.73196 11.27 10.2353 10.8993 10.6068C10.5257 10.9805 10.0285 11.1863 9.49966 11.1863Z" fill="#00856B"/>
</svg>
