<svg width="22" height="22" viewBox="0 0 22 22" fill="none" xmlns="http://www.w3.org/2000/svg">
<path fill-rule="evenodd" clip-rule="evenodd" d="M15.8926 6.82423V8.21493C17.4547 8.70253 18.5929 10.1167 18.5929 11.8057V16.2834C18.5929 18.3744 16.8594 20.0697 14.7221 20.0697H7.04602C4.90787 20.0697 3.17432 18.3744 3.17432 16.2834V11.8057C3.17432 10.1167 4.31343 8.70253 5.87465 8.21493V6.82423C5.88386 4.12033 8.12338 1.93018 10.8698 1.93018C13.6531 1.93018 15.8926 4.12033 15.8926 6.82423ZM10.8881 3.50728C12.759 3.50728 14.2796 4.99442 14.2796 6.82406V8.01918H7.48734V6.80603C7.49656 4.98541 9.01722 3.50728 10.8881 3.50728ZM11.6898 15.0402C11.6898 15.4818 11.3304 15.8333 10.8788 15.8333C10.4364 15.8333 10.077 15.4818 10.077 15.0402V13.0393C10.077 12.6067 10.4364 12.2552 10.8788 12.2552C11.3304 12.2552 11.6898 12.6067 11.6898 13.0393V15.0402Z" fill="#D0D0D0"/>
</svg>
