<svg width="22" height="22" viewBox="0 0 22 22" fill="none" xmlns="http://www.w3.org/2000/svg">
<path fill-rule="evenodd" clip-rule="evenodd" d="M15.3638 2.83691C16.58 2.83691 17.75 3.31761 18.6108 4.18015C19.4724 5.04087 19.954 6.2018 19.954 7.41715V14.5823C19.954 17.1127 17.8951 19.1625 15.3638 19.1625H6.40376C3.87238 19.1625 1.81445 17.1127 1.81445 14.5823V7.41715C1.81445 4.88668 3.86331 2.83691 6.40376 2.83691H15.3638ZM16.8066 8.76889L16.8791 8.69633C17.0959 8.43331 17.0959 8.05238 16.8692 7.78936C16.7431 7.65422 16.5698 7.57168 16.3894 7.55354C16.1989 7.54357 16.0175 7.60796 15.8805 7.73494L11.791 11.0001C11.2649 11.4363 10.5112 11.4363 9.97704 11.0001L5.89564 7.73494C5.61357 7.52633 5.22357 7.55354 4.98866 7.79843C4.74378 8.04331 4.71657 8.43331 4.92427 8.7054L5.04308 8.82331L9.16983 12.0431C9.67773 12.4421 10.2936 12.6598 10.9384 12.6598C11.5815 12.6598 12.2082 12.4421 12.7152 12.0431L16.8066 8.76889Z" fill="#D0D0D0"/>
</svg>
