<svg width="40" height="40" viewBox="0 0 40 40" fill="none" xmlns="http://www.w3.org/2000/svg">
<path d="M29.2602 20L30.3655 18.0897C30.4984 17.8599 30.5345 17.5867 30.466 17.3302C30.3974 17.0737 30.2299 16.855 30.0001 16.722L28.0878 15.6167V13.4141C28.0878 13.1485 27.9823 12.8939 27.7945 12.7061C27.6068 12.5184 27.3521 12.4129 27.0866 12.4129H24.8849L23.7806 10.5016C23.6479 10.2716 23.4293 10.1038 23.1729 10.035C23.0458 10.001 22.9133 9.9923 22.783 10.0095C22.6526 10.0267 22.5268 10.0694 22.413 10.1351L20.5007 11.2405L18.5884 10.1341C18.3584 10.0014 18.0851 9.96539 17.8287 10.0341C17.5722 10.1028 17.3535 10.2706 17.2207 10.5006L16.1154 12.4129H13.9138C13.6482 12.4129 13.3936 12.5184 13.2058 12.7061C13.018 12.8939 12.9126 13.1485 12.9126 13.4141V15.6157L11.0003 16.721C10.8863 16.7869 10.7865 16.8745 10.7065 16.9789C10.6265 17.0834 10.5678 17.2025 10.5339 17.3296C10.4999 17.4567 10.4914 17.5893 10.5087 17.7197C10.526 17.8501 10.5689 17.9758 10.6348 18.0897L11.7401 20L10.6348 21.9103C10.5026 22.1403 10.4668 22.4133 10.5351 22.6697C10.6033 22.9261 10.7702 23.1451 10.9993 23.2789L12.9116 24.3843V26.5859C12.9116 26.8514 13.017 27.1061 13.2048 27.2939C13.3926 27.4816 13.6472 27.5871 13.9128 27.5871H16.1154L17.2207 29.4994C17.3094 29.6509 17.4359 29.7768 17.5879 29.8645C17.74 29.9523 17.9122 29.999 18.0878 30C18.262 30 18.4352 29.9539 18.5894 29.8648L20.4997 28.7595L22.412 29.8648C22.6418 29.9977 22.915 30.0338 23.1714 29.9653C23.4279 29.8968 23.6467 29.7292 23.7796 29.4994L24.8839 27.5871H27.0856C27.3511 27.5871 27.6058 27.4816 27.7935 27.2939C27.9813 27.1061 28.0868 26.8514 28.0868 26.5859V24.3843L29.9991 23.2789C30.113 23.2131 30.2128 23.1255 30.2928 23.021C30.3728 22.9166 30.4315 22.7974 30.4654 22.6703C30.4994 22.5432 30.5079 22.4107 30.4906 22.2803C30.4733 22.1499 30.4304 22.0241 30.3645 21.9103L29.2602 20ZM17.9967 14.984C18.3951 14.9841 18.7772 15.1425 19.0588 15.4243C19.3404 15.7062 19.4986 16.0883 19.4985 16.4868C19.4983 16.8852 19.3399 17.2673 19.0581 17.5489C18.7763 17.8306 18.3941 17.9887 17.9957 17.9886C17.5972 17.9884 17.2152 17.83 16.9335 17.5482C16.6519 17.2664 16.4937 16.8842 16.4939 16.4858C16.494 16.0873 16.6524 15.7053 16.9342 15.4236C17.2161 15.142 17.5982 14.9838 17.9967 14.984ZM18.297 24.5955L16.6951 23.3951L22.7023 15.3854L24.3042 16.5859L18.297 24.5955ZM23.0027 24.996C22.8054 24.9959 22.61 24.957 22.4278 24.8814C22.2456 24.8059 22.08 24.6952 21.9405 24.5556C21.8011 24.4161 21.6905 24.2504 21.615 24.0681C21.5396 23.8858 21.5008 23.6905 21.5009 23.4932C21.5009 23.2959 21.5399 23.1006 21.6154 22.9183C21.691 22.7361 21.8017 22.5705 21.9412 22.431C22.0808 22.2916 22.2464 22.181 22.4287 22.1055C22.611 22.0301 22.8064 21.9913 23.0037 21.9914C23.4021 21.9915 23.7842 22.1499 24.0658 22.4317C24.3475 22.7136 24.5056 23.0957 24.5055 23.4942C24.5053 23.8926 24.3469 24.2747 24.0651 24.5563C23.7833 24.838 23.4011 24.9961 23.0027 24.996Z" fill="#008582"/>
</svg>
