<svg width="48" height="49" viewBox="0 0 48 49" fill="none" xmlns="http://www.w3.org/2000/svg">
<rect y="0.5" width="48" height="48" rx="12" fill="#9FE2BF"/>
<path d="M30.0001 18.5C30.0001 20.0913 29.3679 21.6174 28.2427 22.7426C27.1175 23.8679 25.5914 24.5 24.0001 24.5C22.4088 24.5 20.8826 23.8679 19.7574 22.7426C18.6322 21.6174 18.0001 20.0913 18.0001 18.5C18.0001 16.9087 18.6322 15.3826 19.7574 14.2574C20.8826 13.1321 22.4088 12.5 24.0001 12.5C25.5914 12.5 27.1175 13.1321 28.2427 14.2574C29.3679 15.3826 30.0001 16.9087 30.0001 18.5ZM28.2858 18.5C28.2858 17.3634 27.8343 16.2733 27.0305 15.4695C26.2268 14.6658 25.1367 14.2143 24.0001 14.2143C22.8634 14.2143 21.7733 14.6658 20.9696 15.4695C20.1659 16.2733 19.7144 17.3634 19.7144 18.5C19.7144 19.6366 20.1659 20.7267 20.9696 21.5305C21.7733 22.3342 22.8634 22.7857 24.0001 22.7857C25.1367 22.7857 26.2268 22.3342 27.0305 21.5305C27.8343 20.7267 28.2858 19.6366 28.2858 18.5ZM16.7144 26.2143C15.9187 26.2143 15.1556 26.5304 14.593 27.093C14.0304 27.6556 13.7144 28.4186 13.7144 29.2143V29.6429C13.7144 31.694 15.0198 33.4289 16.8729 34.6083C18.7364 35.7946 21.2589 36.5 24.0001 36.5C26.7412 36.5 29.2629 35.7946 31.1272 34.6083C32.9804 33.4289 34.2858 31.694 34.2858 29.6429V29.2143C34.2858 28.4186 33.9697 27.6556 33.4071 27.093C32.8445 26.5304 32.0814 26.2143 31.2858 26.2143H16.7144ZM15.4286 29.2143C15.4286 28.8733 15.5641 28.5463 15.8052 28.3051C16.0463 28.064 16.3734 27.9286 16.7144 27.9286H31.2858C31.6268 27.9286 31.9538 28.064 32.1949 28.3051C32.436 28.5463 32.5715 28.8733 32.5715 29.2143V29.6429C32.5715 30.9054 31.7658 32.1706 30.2066 33.1623C28.6578 34.148 26.4661 34.7857 24.0001 34.7857C21.5341 34.7857 19.3424 34.148 17.7935 33.1623C16.2335 32.1714 15.4286 30.9046 15.4286 29.6429V29.2143Z" fill="#00856B"/>
</svg>
