<svg width="24" height="24" viewBox="0 0 24 24" fill="none" xmlns="http://www.w3.org/2000/svg">
<path d="M11.9997 15.5545C13.4724 15.5545 14.6663 14.3606 14.6663 12.8879C14.6663 11.4151 13.4724 10.2212 11.9997 10.2212C10.5269 10.2212 9.33301 11.4151 9.33301 12.8879C9.33301 14.3606 10.5269 15.5545 11.9997 15.5545Z" stroke="#00856B" stroke-width="1.5"/>
<path d="M3.11133 13.2125C3.11133 10.488 3.11133 9.12625 3.7771 8.14848C4.0665 7.72358 4.43682 7.35991 4.86688 7.07826C5.50688 6.65781 6.30865 6.50759 7.53621 6.45426C8.12198 6.45426 8.62598 6.0187 8.74065 5.45426C8.82828 5.04081 9.05596 4.67029 9.38523 4.40533C9.71449 4.14037 10.1251 3.9972 10.5478 4.00004H13.4526C14.3309 4.00004 15.0873 4.60893 15.2597 5.45426C15.3744 6.0187 15.8784 6.45426 16.4642 6.45426C17.6908 6.50759 18.4926 6.6587 19.1335 7.07826C19.5646 7.36092 19.9353 7.72448 20.2233 8.14848C20.8891 9.12625 20.8891 10.488 20.8891 13.2125C20.8891 15.9369 20.8891 17.2978 20.2233 18.2764C19.9339 18.7013 19.5636 19.065 19.1335 19.3467C18.1371 20 16.7495 20 13.9753 20H10.0251C7.25087 20 5.86332 20 4.86688 19.3467C4.43705 19.0647 4.06703 18.7007 3.77799 18.2756C3.58487 17.9879 3.44265 17.6692 3.35755 17.3333M18.2224 10.2222H17.3335" stroke="#00856B" stroke-width="1.5" stroke-linecap="round"/>
</svg>
