<svg width="41" height="41" viewBox="0 0 41 41" fill="none" xmlns="http://www.w3.org/2000/svg">
<g id="ph:pipe-thin">
<rect x="0.0307617" y="0.489746" width="40" height="40" rx="20" fill="#D3FFDF"/>
<path id="Vector" d="M26.1003 9.75H26.1L24.5 9.75L24.4997 9.75C24.2001 9.75034 23.908 9.84346 23.6635 10.0166L23.8076 10.22L23.6635 10.0166C23.4686 10.1546 23.3115 10.3381 23.2052 10.55L21.3 10.55L21.2997 10.55C18.5822 10.553 15.9769 11.6338 14.0554 13.5554C12.1338 15.4769 11.053 18.0822 11.05 20.7997V20.8V22.7052C10.8381 22.8115 10.6546 22.9686 10.5166 23.1635L10.7198 23.3074L10.5166 23.1635C10.3435 23.408 10.2503 23.7001 10.25 23.9997V24L10.25 25.6L10.25 25.6003C10.2503 25.8999 10.3435 26.192 10.5166 26.4365C10.6546 26.6314 10.8381 26.7885 11.05 26.8948V29.6C11.05 29.7724 11.1185 29.9377 11.2404 30.0596C11.3623 30.1815 11.5276 30.25 11.7 30.25C11.8724 30.25 12.0377 30.1815 12.1596 30.0596C12.2815 29.9377 12.35 29.7724 12.35 29.6V27.05H17.45V29.6C17.45 29.7724 17.5185 29.9377 17.6404 30.0596C17.7623 30.1815 17.9276 30.25 18.1 30.25C18.2724 30.25 18.4377 30.1815 18.5596 30.0596C18.6815 29.9377 18.75 29.7724 18.75 29.6V26.8948C18.9619 26.7885 19.1454 26.6314 19.2834 26.4365C19.4565 26.192 19.5497 25.8999 19.55 25.6003V25.6V24V23.9997C19.5497 23.7001 19.4565 23.408 19.2834 23.1635C19.1454 22.9686 18.9619 22.8115 18.75 22.7052V20.8C18.75 20.1237 19.0187 19.4751 19.4969 18.9969C19.9751 18.5187 20.6237 18.25 21.3 18.25H23.2052C23.3115 18.4619 23.4686 18.6454 23.6635 18.7834C23.908 18.9565 24.2001 19.0497 24.4997 19.05H24.5H26.1H26.1003C26.3999 19.0497 26.692 18.9565 26.9365 18.7834C27.1314 18.6454 27.2885 18.4619 27.3948 18.25H30.1C30.2724 18.25 30.4377 18.1815 30.5596 18.0596C30.6815 17.9377 30.75 17.7724 30.75 17.6C30.75 17.4276 30.6815 17.2623 30.5596 17.1404C30.4377 17.0185 30.2724 16.95 30.1 16.95H27.55V11.85H30.1C30.2724 11.85 30.4377 11.7815 30.5596 11.6596C30.6815 11.5377 30.75 11.3724 30.75 11.2C30.75 11.0276 30.6815 10.8623 30.5596 10.7404C30.4377 10.6185 30.2724 10.55 30.1 10.55H27.3948C27.2885 10.3381 27.1314 10.1546 26.9365 10.0166C26.692 9.84346 26.3999 9.75034 26.1003 9.75ZM18.25 25.6C18.25 25.6398 18.2342 25.6779 18.2061 25.7061C18.1779 25.7342 18.1398 25.75 18.1 25.75H11.7C11.6602 25.75 11.6221 25.7342 11.5939 25.7061C11.5658 25.6779 11.55 25.6398 11.55 25.6V24C11.55 23.9602 11.5658 23.9221 11.5939 23.8939C11.6221 23.8658 11.6602 23.85 11.7 23.85H18.1C18.1398 23.85 18.1779 23.8658 18.2061 23.8939C18.2342 23.9221 18.25 23.9602 18.25 24V25.6ZM17.45 20.8V22.55H12.35L12.35 20.8003C12.35 20.8002 12.35 20.8002 12.35 20.8002C12.3526 18.4272 13.2964 16.1522 14.9743 14.4743C16.6522 12.7964 18.9272 11.8526 21.3002 11.85C21.3002 11.85 21.3002 11.85 21.3003 11.85L23.05 11.85V16.95H21.3C20.2789 16.95 19.2997 17.3556 18.5776 18.0776C17.8556 18.7997 17.45 19.7789 17.45 20.8ZM26.1 17.75H24.5C24.4602 17.75 24.4221 17.7342 24.3939 17.7061C24.3658 17.6779 24.35 17.6398 24.35 17.6V11.2C24.35 11.1602 24.3658 11.1221 24.3939 11.0939C24.4221 11.0658 24.4602 11.05 24.5 11.05H26.1C26.1398 11.05 26.1779 11.0658 26.2061 11.0939C26.2342 11.1221 26.25 11.1602 26.25 11.2V17.6C26.25 17.6398 26.2342 17.6779 26.2061 17.7061C26.1779 17.7342 26.1398 17.75 26.1 17.75Z" fill="#008582" stroke="#008582" stroke-width="0.5"/>
</g>
</svg>
