<svg width="24" height="24" viewBox="0 0 24 24" fill="none" xmlns="http://www.w3.org/2000/svg">
<path d="M6.18227 15.3097C4.94628 14.0729 4.32789 13.4553 4.09829 12.6529C3.86789 11.8505 4.06469 10.9985 4.45829 9.29533L4.68468 8.31294C5.01508 6.87936 5.18068 6.16257 5.67107 5.67138C6.16147 5.18018 6.87906 5.01538 8.31264 4.68499L9.29503 4.45779C10.999 4.065 11.8502 3.8682 12.6526 4.0978C13.455 4.32819 14.0726 4.94658 15.3086 6.18257L16.7725 7.64655C18.9253 9.79853 19.9997 10.8737 19.9997 12.2097C19.9997 13.5465 18.9245 14.6217 16.7733 16.7728C14.6214 18.9248 13.5462 20 12.2094 20C10.8734 20 9.79742 18.9248 7.64625 16.7736L6.18227 15.3097Z" stroke="#00856B" stroke-width="1.5"/>
<path d="M14.7117 14.7117C15.1797 14.2421 15.2429 13.5462 14.8525 13.155C14.4621 12.7638 13.7653 12.8278 13.2965 13.2966C12.8285 13.7654 12.1317 13.8286 11.7413 13.4382C11.3509 13.0478 11.4141 12.351 11.8829 11.883M11.8829 11.883L11.5997 11.5998M11.8829 11.883C12.1477 11.6174 12.4853 11.483 12.7997 11.4854M14.9941 14.9941L14.7109 14.7109C14.3909 15.0317 13.9629 15.1629 13.5997 15.0877" stroke="#00856B" stroke-width="1.5" stroke-linecap="round"/>
<path d="M10.4165 10.6338C11.0414 10.009 11.0414 8.99591 10.4165 8.37108C9.7917 7.74625 8.77865 7.74625 8.15382 8.37108C7.52899 8.99592 7.52899 10.009 8.15382 10.6338C8.77865 11.2586 9.7917 11.2586 10.4165 10.6338Z" stroke="#00856B" stroke-width="1.5"/>
</svg>
