<svg width="40" height="40" viewBox="0 0 40 40" fill="none" xmlns="http://www.w3.org/2000/svg">
<path fill-rule="evenodd" clip-rule="evenodd" d="M16.0556 14.4444C16.0556 13.2657 16.5238 12.1352 17.3573 11.3017C18.1908 10.4683 19.3213 10 20.5 10C21.6787 10 22.8092 10.4683 23.6427 11.3017C24.4762 12.1352 24.9444 13.2657 24.9444 14.4444C24.9444 15.6232 24.4762 16.7536 23.6427 17.5871C22.8092 18.4206 21.6787 18.8889 20.5 18.8889C19.3213 18.8889 18.1908 18.4206 17.3573 17.5871C16.5238 16.7536 16.0556 15.6232 16.0556 14.4444ZM16.0556 21.1111C14.5821 21.1111 13.1691 21.6964 12.1272 22.7383C11.0853 23.7802 10.5 25.1932 10.5 26.6667C10.5 27.5507 10.8512 28.3986 11.4763 29.0237C12.1014 29.6488 12.9493 30 13.8333 30H27.1667C28.0507 30 28.8986 29.6488 29.5237 29.0237C30.1488 28.3986 30.5 27.5507 30.5 26.6667C30.5 25.1932 29.9147 23.7802 28.8728 22.7383C27.8309 21.6964 26.4179 21.1111 24.9444 21.1111H16.0556Z" fill="#008582"/>
</svg>
