<svg width="161" height="56" viewBox="0 0 161 56" fill="none" xmlns="http://www.w3.org/2000/svg">
<path d="M33.0155 42.8096L34.2003 53.7884C32.9892 54.3677 31.4622 54.8679 29.6192 55.2891C27.7762 55.763 25.2487 56 22.0367 56C17.9295 56 14.7174 55.3945 12.4006 54.1834C10.0837 52.9723 8.39868 51.3399 7.34556 49.2863C6.29243 47.2327 5.63423 44.9158 5.37094 42.3357C5.16032 39.7555 5.05501 37.0964 5.05501 34.3583V21.4838H0V12.5585H5.05501V0H20.378V8.1354L14.8285 12.5585H30.646V21.4838H20.378V34.3583C20.378 37.9915 20.7729 40.677 21.5628 42.4147C22.3526 44.0997 24.0113 44.9422 26.5388 44.9422C27.6972 44.9422 28.8293 44.7315 29.9351 44.3103C31.0409 43.889 32.0677 43.3888 33.0155 42.8096Z" fill="#9FE2BF"/>
<path d="M58.6765 12.0846C65.1005 12.0846 69.8923 13.401 73.0516 16.0339C76.2637 18.6667 77.8697 22.1683 77.8697 26.5388V55.2102H67.9176L65.7061 49.6023C65.0215 50.4974 64.0474 51.4452 62.7836 52.4457C61.5726 53.4462 60.0719 54.2887 58.2815 54.9732C56.5439 55.6577 54.464 56 52.0418 56C47.3554 56 43.7221 54.8416 41.1419 52.5247C38.6144 50.1551 37.3506 47.0221 37.3506 43.1255C37.3506 40.1241 37.9035 37.7019 39.0093 35.859C40.1678 34.016 41.6421 32.6206 43.4325 31.6728C45.2754 30.6723 47.1974 29.9878 49.1983 29.6192C51.2519 29.2506 53.1475 29.0663 54.8852 29.0663C56.6755 29.0663 58.3342 29.1979 59.8612 29.4612C61.3883 29.6718 62.7837 29.9351 64.0474 30.2511V28.1185C64.0474 26.0122 63.5208 24.5378 62.4677 23.6953C61.4672 22.8528 59.8612 22.4316 57.6497 22.4316C56.3333 22.4316 54.9115 22.6159 53.3845 22.9845C51.9101 23.3004 50.5147 23.6953 49.1983 24.1693C47.8819 24.5905 46.8025 24.9854 45.96 25.354C45.1175 25.67 44.6962 25.8279 44.6962 25.8279L41.6158 16.1918C41.6158 16.1918 42.0897 15.9812 43.0375 15.5599C44.038 15.1387 45.3281 14.6648 46.9078 14.1382C48.5401 13.6117 50.3831 13.1378 52.4367 12.7165C54.4903 12.2953 56.5702 12.0846 58.6765 12.0846ZM55.5961 45.4161C57.2284 45.4161 58.8081 45.1528 60.3351 44.6262C61.9148 44.047 63.1522 43.2835 64.0474 42.3357V38.2285C63.2049 37.9652 62.2571 37.7546 61.204 37.5966C60.1508 37.386 59.0451 37.2807 57.8866 37.2807C55.991 37.2807 54.3323 37.5703 52.9106 38.1495C51.4889 38.6761 50.778 39.8608 50.778 41.7038C50.778 43.0202 51.2519 43.968 52.1997 44.5472C53.1475 45.1265 54.2797 45.4161 55.5961 45.4161Z" fill="#9FE2BF"/>
<path d="M108.945 12.5585H124.425L108.945 55.2102H92.9107L77.4297 12.5585H92.9107L100.256 38.0705H101.52L108.945 12.5585Z" fill="#9FE2BF"/>
<path d="M141.638 12.0846C148.062 12.0846 152.854 13.401 156.013 16.0339C159.225 18.6667 160.831 22.1683 160.831 26.5388V55.2102H150.879L148.668 49.6023C147.983 50.4974 147.009 51.4452 145.745 52.4457C144.534 53.4462 143.033 54.2887 141.243 54.9732C139.505 55.6577 137.425 56 135.003 56C130.317 56 126.684 54.8416 124.103 52.5247C121.576 50.1551 120.312 47.0221 120.312 43.1255C120.312 40.1241 120.865 37.7019 121.971 35.859C123.129 34.016 124.604 32.6206 126.394 31.6728C128.237 30.6723 130.159 29.9878 132.16 29.6192C134.213 29.2506 136.109 29.0663 137.847 29.0663C139.637 29.0663 141.296 29.1979 142.823 29.4612C144.35 29.6718 145.745 29.9351 147.009 30.2511V28.1185C147.009 26.0122 146.482 24.5378 145.429 23.6953C144.429 22.8528 142.823 22.4316 140.611 22.4316C139.295 22.4316 137.873 22.6159 136.346 22.9845C134.872 23.3004 133.476 23.6953 132.16 24.1693C130.843 24.5905 129.764 24.9854 128.921 25.354C128.079 25.67 127.658 25.8279 127.658 25.8279L124.577 16.1918C124.577 16.1918 125.051 15.9812 125.999 15.5599C126.999 15.1387 128.29 14.6648 129.869 14.1382C131.502 13.6117 133.345 13.1378 135.398 12.7165C137.452 12.2953 139.532 12.0846 141.638 12.0846ZM138.558 45.4161C140.19 45.4161 141.77 45.1528 143.297 44.6262C144.876 44.047 146.114 43.2835 147.009 42.3357V38.2285C146.166 37.9652 145.219 37.7546 144.165 37.5966C143.112 37.386 142.007 37.2807 140.848 37.2807C138.952 37.2807 137.294 37.5703 135.872 38.1495C134.45 38.6761 133.739 39.8608 133.739 41.7038C133.739 43.0202 134.213 43.968 135.161 44.5472C136.109 45.1265 137.241 45.4161 138.558 45.4161Z" fill="#9FE2BF"/>
</svg>
