<svg width="69" height="24" viewBox="0 0 69 24" fill="none" xmlns="http://www.w3.org/2000/svg">
<g id="tava">
<path d="M14.1856 18.347L14.6934 23.0522C14.1744 23.3004 13.5199 23.5148 12.7301 23.6953C11.9402 23.8984 10.857 24 9.48042 24C7.7202 24 6.34361 23.7405 5.35066 23.2214C4.35771 22.7024 3.63557 22.0028 3.18423 21.1227C2.73289 20.2426 2.4508 19.2496 2.33797 18.1439C2.2477 17.0381 2.20256 15.8984 2.20256 14.725V9.20733H0.0361328V5.38223H2.20256V0H8.76956V3.4866L6.3912 5.38223H13.1701V9.20733H8.76956V14.725C8.76956 16.2821 8.93881 17.433 9.27732 18.1777C9.61582 18.8999 10.3267 19.2609 11.4099 19.2609C11.9064 19.2609 12.3916 19.1707 12.8655 18.9901C13.3394 18.8096 13.7794 18.5952 14.1856 18.347Z" fill="#008582"/>
<path d="M25.1832 5.17913C27.9364 5.17913 29.99 5.7433 31.344 6.87165C32.7206 8 33.4089 9.50071 33.4089 11.3738V23.6615H29.1437L28.1959 21.2581C27.9025 21.6417 27.485 22.048 26.9434 22.4767C26.4244 22.9055 25.7812 23.2666 25.0139 23.5599C24.2692 23.8533 23.3778 24 22.3397 24C20.3313 24 18.7742 23.5035 17.6684 22.5106C16.5852 21.4951 16.0436 20.1523 16.0436 18.4824C16.0436 17.1961 16.2805 16.158 16.7544 15.3681C17.2509 14.5783 17.8828 13.9803 18.65 13.574C19.4399 13.1453 20.2636 12.8519 21.1211 12.6939C22.0012 12.536 22.8137 12.457 23.5584 12.457C24.3256 12.457 25.0365 12.5134 25.6909 12.6262C26.3454 12.7165 26.9434 12.8293 27.485 12.9647V12.0508C27.485 11.1481 27.2593 10.5162 26.808 10.1551C26.3792 9.79408 25.6909 9.61354 24.7431 9.61354C24.179 9.61354 23.5696 9.69252 22.9152 9.85049C22.2833 9.9859 21.6853 10.1551 21.1211 10.3583C20.557 10.5388 20.0943 10.708 19.7333 10.866C19.3722 11.0014 19.1917 11.0691 19.1917 11.0691L17.8715 6.93935C17.8715 6.93935 18.0746 6.84908 18.4808 6.66855C18.9096 6.48801 19.4625 6.28491 20.1395 6.05924C20.839 5.83357 21.6289 5.63047 22.509 5.44993C23.3891 5.26939 24.2805 5.17913 25.1832 5.17913ZM23.863 19.464C24.5626 19.464 25.2396 19.3512 25.894 19.1255C26.5711 18.8773 27.1014 18.5501 27.485 18.1439V16.3836C27.1239 16.2708 26.7177 16.1805 26.2664 16.1128C25.8151 16.0226 25.3412 15.9774 24.8447 15.9774C24.0323 15.9774 23.3214 16.1016 22.7121 16.3498C22.1028 16.5755 21.7981 17.0832 21.7981 17.8731C21.7981 18.4372 22.0012 18.8434 22.4074 19.0917C22.8137 19.3399 23.2988 19.464 23.863 19.464Z" fill="#008582"/>
<path d="M46.7267 5.38223H53.3613L46.7267 23.6615H39.855L33.2203 5.38223H39.855L43.0031 16.3159H43.5447L46.7267 5.38223Z" fill="#008582"/>
<path d="M60.7381 5.17913C63.4913 5.17913 65.5449 5.7433 66.8989 6.87165C68.2755 8 68.9638 9.50071 68.9638 11.3738V23.6615H64.6986L63.7508 21.2581C63.4574 21.6417 63.0399 22.048 62.4983 22.4767C61.9793 22.9055 61.3361 23.2666 60.5688 23.5599C59.8241 23.8533 58.9327 24 57.8947 24C55.8862 24 54.3291 23.5035 53.2233 22.5106C52.1401 21.4951 51.5985 20.1523 51.5985 18.4824C51.5985 17.1961 51.8354 16.158 52.3093 15.3681C52.8058 14.5783 53.4377 13.9803 54.205 13.574C54.9948 13.1453 55.8185 12.8519 56.676 12.6939C57.5562 12.536 58.3686 12.457 59.1133 12.457C59.8806 12.457 60.5914 12.5134 61.2459 12.6262C61.9003 12.7165 62.4983 12.8293 63.0399 12.9647V12.0508C63.0399 11.1481 62.8143 10.5162 62.3629 10.1551C61.9342 9.79408 61.2459 9.61354 60.298 9.61354C59.7339 9.61354 59.1246 9.69252 58.4701 9.85049C57.8382 9.9859 57.2402 10.1551 56.676 10.3583C56.1119 10.5388 55.6492 10.708 55.2882 10.866C54.9271 11.0014 54.7466 11.0691 54.7466 11.0691L53.4264 6.93935C53.4264 6.93935 53.6295 6.84908 54.0357 6.66855C54.4645 6.48801 55.0174 6.28491 55.6944 6.05924C56.394 5.83357 57.1838 5.63047 58.0639 5.44993C58.944 5.26939 59.8354 5.17913 60.7381 5.17913ZM59.4179 19.464C60.1175 19.464 60.7945 19.3512 61.449 19.1255C62.126 18.8773 62.6563 18.5501 63.0399 18.1439V16.3836C62.6789 16.2708 62.2727 16.1805 61.8213 16.1128C61.37 16.0226 60.8961 15.9774 60.3996 15.9774C59.5872 15.9774 58.8763 16.1016 58.267 16.3498C57.6577 16.5755 57.3531 17.0832 57.3531 17.8731C57.3531 18.4372 57.5562 18.8434 57.9624 19.0917C58.3686 19.3399 58.8538 19.464 59.4179 19.464Z" fill="#008582"/>
</g>
</svg>
