<svg width="24" height="24" viewBox="0 0 24 24" fill="none" xmlns="http://www.w3.org/2000/svg">
<path d="M8.72648 18.9084C8.90736 19.5129 9.27839 20.0429 9.78446 20.4197C10.2905 20.7965 10.9046 21 11.5356 21C12.1665 21 12.7806 20.7965 13.2867 20.4197C13.7928 20.0429 14.1638 19.5129 14.3447 18.9084H8.72648ZM4 18.0712H19.0712V15.5593L17.3966 13.0474V8.86101C17.3966 8.09133 17.245 7.32919 16.9504 6.6181C16.6559 5.90701 16.2242 5.26089 15.6799 4.71665C15.1357 4.1724 14.4896 3.74069 13.7785 3.44614C13.0674 3.1516 12.3053 3 11.5356 3C10.7659 3 10.0038 3.1516 9.29267 3.44614C8.58158 3.74069 7.93547 4.1724 7.39122 4.71665C6.84698 5.26089 6.41526 5.90701 6.12072 6.6181C5.82617 7.32919 5.67457 8.09133 5.67457 8.86101V13.0474L4 15.5593V18.0712Z" fill="#008582"/>
</svg>
