<svg width="38" height="38" viewBox="0 0 38 38" fill="none" xmlns="http://www.w3.org/2000/svg">
<circle cx="18.6647" cy="18.6647" r="18.6647" fill="white" fill-opacity="0.23"/>
<path d="M26.9399 14.6427C26.3813 14.891 25.7916 15.0461 25.1709 15.1393C25.7916 14.7668 26.2882 14.1772 26.5055 13.4633C25.9158 13.8047 25.264 14.053 24.5502 14.2082C23.9916 13.6185 23.1847 13.2461 22.3157 13.2461C20.6398 13.2461 19.2742 14.6117 19.2742 16.2876C19.2742 16.5358 19.3052 16.7531 19.3673 16.9703C16.8535 16.8462 14.5879 15.6358 13.0671 13.7737C12.8189 14.2392 12.6637 14.7358 12.6637 15.2944C12.6637 16.3496 13.1913 17.2807 14.0292 17.8393C13.5327 17.8083 13.0671 17.6842 12.6326 17.4669V17.4979C12.6326 18.9876 13.6878 20.2291 15.0844 20.5084C14.8362 20.5704 14.5568 20.6015 14.2775 20.6015C14.0913 20.6015 13.8741 20.5704 13.6878 20.5394C14.0913 21.7498 15.2086 22.6498 16.5431 22.6498C15.4879 23.4567 14.1844 23.9533 12.7568 23.9533C12.5085 23.9533 12.2602 23.9533 12.043 23.9223C13.4085 24.7913 14.9913 25.2878 16.7293 25.2878C22.3467 25.2878 25.4192 20.6325 25.4192 16.5979C25.4192 16.4738 25.4192 16.3186 25.4192 16.1945C26.0089 15.791 26.5365 15.2634 26.9399 14.6427Z" fill="#92E3A9"/>
</svg>
