<svg width="19" height="20" viewBox="0 0 19 20" fill="none" xmlns="http://www.w3.org/2000/svg">
<path d="M13.9786 4.69862C11.5054 2.26583 7.49565 2.26583 5.02249 4.69862C4.43529 5.27229 3.9687 5.95755 3.65014 6.71413C3.33158 7.47071 3.16748 8.28333 3.16748 9.10424C3.16748 9.92515 3.33158 10.7378 3.65014 11.4944C3.9687 12.2509 4.43529 12.9362 5.02249 13.5099L9.50015 17.9155L13.9786 13.5099C14.5658 12.9362 15.0324 12.2509 15.351 11.4944C15.6695 10.7378 15.8336 9.92515 15.8336 9.10424C15.8336 8.28333 15.6695 7.47071 15.351 6.71413C15.0324 5.95755 14.5658 5.27229 13.9786 4.69862ZM9.50015 11.1863C8.97132 11.1863 8.47494 10.9805 8.10049 10.6068C7.72979 10.2353 7.5216 9.73196 7.5216 9.20716C7.5216 8.68235 7.72979 8.17898 8.10049 7.80749C8.47415 7.43383 8.97132 7.22799 9.50015 7.22799C10.029 7.22799 10.5262 7.43383 10.8998 7.80749C11.2705 8.17898 11.4787 8.68235 11.4787 9.20716C11.4787 9.73196 11.2705 10.2353 10.8998 10.6068C10.5262 10.9805 10.029 11.1863 9.50015 11.1863Z" fill="#008582"/>
</svg>
