<svg width="17" height="20" viewBox="0 0 17 20" fill="none" xmlns="http://www.w3.org/2000/svg">
<path d="M14.1141 19.1976C13.0254 20.253 11.8366 20.0864 10.6923 19.5864C9.48139 19.0754 8.37041 19.0532 7.0928 19.5864C5.493 20.2752 4.64866 20.0752 3.69323 19.1976C-1.72831 13.6094 -0.928413 5.09936 5.22637 4.78828C6.72618 4.86605 7.77049 5.6104 8.64816 5.67706C9.9591 5.41043 11.2145 4.64386 12.6143 4.74385C14.2919 4.87716 15.5584 5.54374 16.3916 6.74359C12.9254 8.82111 13.7475 13.3872 16.9249 14.6648C16.2916 16.3313 15.4695 17.9866 14.103 19.2087L14.1141 19.1976ZM8.53706 4.72163C8.37041 2.24416 10.3813 0.199975 12.6921 0C13.0143 2.8663 10.0924 4.99937 8.53706 4.72163Z" fill="black"/>
</svg>
