<svg width="17" height="18" viewBox="0 0 17 18" fill="none" xmlns="http://www.w3.org/2000/svg">
<path d="M16.8347 7.33527H16.15V7.3H8.5V10.7H13.3038C12.603 12.6792 10.7198 14.1 8.5 14.1C5.68353 14.1 3.4 11.8165 3.4 9C3.4 6.18353 5.68353 3.9 8.5 3.9C9.80008 3.9 10.9829 4.39045 11.8834 5.19157L14.2877 2.78735C12.7696 1.37253 10.7389 0.5 8.5 0.5C3.80587 0.5 0 4.30587 0 9C0 13.6941 3.80587 17.5 8.5 17.5C13.1941 17.5 17 13.6941 17 9C17 8.43008 16.9414 7.87375 16.8347 7.33527Z" fill="#FFC107"/>
<path d="M0.980044 5.04367L3.77272 7.09175C4.52837 5.2209 6.35843 3.9 8.5 3.9C9.80008 3.9 10.9829 4.39045 11.8834 5.19157L14.2877 2.78735C12.7696 1.37253 10.7389 0.5 8.5 0.5C5.23515 0.5 2.40379 2.34323 0.980044 5.04367Z" fill="#FF3D00"/>
<path d="M8.5 17.5C10.6955 17.5 12.6906 16.6595 14.199 15.2931L11.5682 13.067C10.6863 13.7381 9.60822 14.1012 8.5 14.1C6.28915 14.1 4.41206 12.69 3.70486 10.7227L0.933008 12.8583C2.33976 15.611 5.19648 17.5 8.5 17.5Z" fill="#4CAF50"/>
<path d="M16.8347 7.33527H16.15V7.3H8.5V10.7H13.3038C12.9685 11.642 12.3647 12.4651 11.5668 13.0677L11.5682 13.067L14.199 15.2931C14.0128 15.4623 17 13.25 17 9C17 8.43008 16.9414 7.87375 16.8347 7.33527Z" fill="#1976D2"/>
</svg>
